Enjoy and seed it, sailors!

"-h65", a new name for an old friend of yours!
Yeah, baby!
@helder1965

------------------------------------------

General
Complete name                            : Sinbad.S01E10.WEB-DL.x264-h65.mp4
Format                                   : MPEG-4
Format profile                           : Base Media
Codec ID                                 : isom
File size                                : 193 MiB
Duration                                 : 43mn 15s
Overall bit rate mode                    : Variable
Overall bit rate                         : 624 Kbps
Encoded date                             : UTC 2012-09-11 13:25:16
Tagged date                              : UTC 2012-09-11 13:25:16

Video
ID                                       : 1
Format                                   : AVC
Format/Info                              : Advanced Video Codec
Format profile                           : High@L3.1
Format settings, CABAC                   : Yes
Format settings, ReFrames                : 2 frames
Codec ID                                 : avc1
Codec ID/Info                            : Advanced Video Coding
Duration                                 : 43mn 15s
Bit rate                                 : 428 Kbps
Maximum bit rate                         : 3 555 Kbps
Width                                    : 720 pixels
Height                                   : 400 pixels
Display aspect ratio                     : 16:9
Frame rate mode                          : Constant
Frame rate                               : 25.000 fps
Color space                              : YUV
Chroma subsampling                       : 4:2:0
Bit depth                                : 8 bits
Scan type                                : Progressive
Bits/(Pixel*Frame)                       : 0.059
Stream size                              : 132 MiB (69%)
Writing library                          : x264 core 125 r2200 999b753
Encoding settings                        : cabac=1 / ref=2 / deblock=1:-1:-1 / analyse=0x3:0x113 / me=hex / subme=6 / psy=1 / psy_rd=1.00:0.00 / mixed_ref=1 / me_range=16 / chroma_me=1 / trellis=1 / 8x8dct=1 / cqm=0 / deadzone=21,11 / fast_pskip=1 / chroma_qp_offset=-2 / threads=6 / lookahead_threads=1 / sliced_threads=0 / nr=0 / decimate=1 / interlaced=0 / bluray_compat=0 / constrained_intra=0 / bframes=1 / b_pyramid=0 / b_adapt=1 / b_bias=0 / direct=1 / weightb=1 / open_gop=0 / weightp=2 / keyint=250 / keyint_min=25 / scenecut=40 / intra_refresh=0 / rc_lookahead=30 / rc=2pass / mbtree=1 / bitrate=428 / ratetol=1.0 / qcomp=0.60 / qpmin=0 / qpmax=69 / qpstep=4 / cplxblur=20.0 / qblur=0.5 / ip_ratio=1.40 / aq=1:1.00
Encoded date                             : UTC 2012-09-11 13:25:16
Tagged date                              : UTC 2012-09-11 13:26:02

Audio
ID                                       : 2
Format                                   : AAC
Format/Info                              : Advanced Audio Codec
Format profile                           : LC
Codec ID                                 : 40
Duration                                 : 43mn 15s
Bit rate mode                            : Variable
Bit rate                                 : 192 Kbps
Maximum bit rate                         : 199 Kbps
Channel(s)                               : 2 channels
Channel positions                        : Front: L R
Sampling rate                            : 48.0 KHz
Compression mode                         : Lossy
Stream size                              : 59.4 MiB (31%)
Encoded date                             : UTC 2012-09-11 13:25:49
Tagged date                              : UTC 2012-09-11 13:26:02